<svg xmlns="http://www.w3.org/2000/svg" width="832.405" height="61.03" viewBox="0 0 832.405 61.03">
  <path id="Path_955" data-name="Path 955" d="M11.9-15.81a8.121,8.121,0,0,0-8.5,8.5,8.121,8.121,0,0,0,8.5,8.5,8.121,8.121,0,0,0,8.5-8.5A8.121,8.121,0,0,0,11.9-15.81Zm71.74.6L88.57,0h16.66L84.065-58.65h-18.7L44.2,0H60.435l4.93-15.215Zm-9.095-29.92,5.44,18.02H69.105ZM181.56-58.65h-15.3v35.7c0,1.615,0,2.465-.085,3.485-.425,6.12-3.91,9.435-10.625,9.435s-10.2-3.315-10.625-9.435c-.085-1.02-.085-1.87-.085-3.485v-35.7h-15.3v32.9c0,2.975,0,4.76.255,8.245.68,9.86,7.65,18.7,25.755,18.7s25.075-8.84,25.755-18.7c.255-3.485.255-5.27.255-8.245Zm79.05,11.9v-11.9H207.23v11.9h19.04V0h15.3V-46.75Zm53.125-13.09c-18.275,0-30.005,11.645-30.005,30.515,0,18.785,11.73,30.515,30.005,30.515S343.74-10.54,343.74-29.325C343.74-48.2,332.01-59.84,313.735-59.84Zm0,49.81c-8.84,0-14.365-6.885-14.365-19.3,0-12.495,5.525-19.3,14.365-19.3s14.365,6.8,14.365,19.3C328.1-16.915,322.575-10.03,313.735-10.03Zm127.5-48.62h-23.29L408-14.875,398.055-58.65H374.17V0h15.3V-24.65c0-5.1,0-12.665-.17-18.615.935,5.95,2.635,13.515,3.995,18.615L399.84,0h15.725l6.46-24.65c1.36-5.185,3.06-12.665,4.08-18.615-.17,5.95-.17,13.515-.17,18.615V0h15.3Zm65.62,43.435L511.785,0h16.66L507.28-58.65h-18.7L467.415,0H483.65l4.93-15.215Zm-9.1-29.92,5.44,18.02H492.32Zm99.28-1.615v-11.9H543.66v11.9H562.7V0H578V-46.75ZM639.54,0V-58.65h-15.3V0Zm53.21-59.84c-11.645,0-22.185,6.375-22.185,17.68,0,11.73,7.82,15.9,21.165,19.21,7.225,1.785,9.435,4.42,9.435,7.48,0,3.23-3.23,5.44-7.48,5.44-4.59,0-9.095-2.38-10.115-7.905h-15.3C669.205-4.76,679.235,1.19,694.11,1.19c11.815,0,23.035-5.95,23.035-17.68,0-9.01-5.27-15.47-18.19-18.53-9.69-2.295-12.41-4.59-12.41-8.33,0-3.57,2.38-5.27,5.865-5.27,5.015,0,7.565,3.23,8.245,8.075h15.3C714.68-51.425,708.22-59.84,692.75-59.84ZM791.605-11.9H761.94V-23.46h27.115v-11.9H761.94V-46.75h28.815v-11.9H746.64V0h44.965Zm35.7-3.91a8.121,8.121,0,0,0-8.5,8.5,8.121,8.121,0,0,0,8.5,8.5,8.121,8.121,0,0,0,8.5-8.5A8.121,8.121,0,0,0,827.305-15.81Z" transform="translate(-3.4 59.84)" fill="#0d2487"/>
</svg>
